<?xml version="1.0" standalone="no"?>
<!DOCTYPE svg PUBLIC "-//W3C//DTD SVG 20010904//EN"
 "http://www.w3.org/TR/2001/REC-SVG-20010904/DTD/svg10.dtd">
<svg version="1.0" xmlns="http://www.w3.org/2000/svg"
 width="16.000000pt" height="16.000000pt" viewBox="0 0 16.000000 16.000000"
 preserveAspectRatio="xMidYMid meet">
<metadata>
Created by potrace 1.11, written by Peter Selinger 2001-2013
</metadata>
<g transform="translate(0.000000,16.000000) scale(0.004233,-0.004233)"
fill="#000000" stroke="none">
<path d="M1790 3144 c-19 -9 -141 -51 -270 -94 -226 -76 -833 -282 -1145 -390
-82 -28 -157 -53 -165 -55 -74 -20 -212 -74 -200 -78 132 -44 547 -172 582
-180 42 -10 55 -7 135 22 48 18 95 34 103 36 8 2 114 41 235 85 121 45 249 92
285 105 36 12 164 59 285 103 272 99 257 94 288 83 29 -11 63 -87 52 -120 -11
-35 -54 -56 -255 -124 -363 -122 -814 -278 -819 -282 -2 -3 -2 -7 1 -10 16
-17 958 -325 992 -325 39 0 341 95 836 262 579 196 978 327 1013 333 70 13 46
33 -83 71 -58 18 -468 154 -912 303 -869 292 -873 293 -958 255z"/>
<path d="M480 2178 c-19 -31 -20 -52 -20 -319 l0 -286 -51 -43 c-119 -101
-134 -272 -31 -367 15 -14 33 -28 40 -32 11 -6 3 -53 -46 -247 -33 -131 -58
-244 -55 -249 4 -11 385 -19 429 -10 l21 5 -28 117 c-16 65 -31 130 -34 145
-3 15 -16 69 -30 120 -14 51 -25 95 -25 98 0 3 22 28 48 56 113 120 99 282
-32 368 l-58 38 7 47 c7 44 7 343 1 446 -2 28 -4 62 -5 78 -1 38 -34 67 -76
67 -29 0 -39 -6 -55 -32z"/>
<path d="M939 2008 c-6 -201 -2 -519 7 -555 24 -95 178 -208 372 -274 45 -15
82 -26 82 -24 0 2 15 -1 33 -6 102 -31 251 -44 497 -44 182 0 220 3 340 28
135 27 268 63 325 88 87 38 191 118 226 175 18 30 19 48 17 341 l-3 310 -85
-28 c-47 -15 -85 -29 -85 -29 0 -1 -7 -3 -15 -5 -8 -2 -170 -56 -360 -120
-190 -65 -358 -120 -375 -122 -32 -5 -77 9 -620 192 -187 63 -343 114 -347
115 -5 0 -9 -19 -9 -42z"/>
</g>
</svg>
